# xmcd CD database file
#
# Track frame offsets:
#	150
#	12524
#	28160
#	49645
#	68010
#	91456
#	106888
#	125794
#	146623
#	164326
#
# Disc length: 2448 seconds
#
# Revision: 0
# Processed by: cddbd v1.5.1PL2 Copyright (c) Steve Scherf et al.
# Submitted via: CDex 1.51
#
DISCID=88098e0a
DTITLE=Vicki Logan - Finding My Way
DYEAR=2005
DGENRE=New Age
TTITLE0=An Angels Lullaby
TTITLE1=Enchanted Winds
TTITLE2=Grandmas Music Box
TTITLE3=My Mothers Memories
TTITLE4=Before The Gates of Heaven
TTITLE5=Only Time
TTITLE6=All the Way to Heaven
TTITLE7=Finding My Way
TTITLE8=Pegasus
TTITLE9=Dreams of the Past
EXTD=YEAR: 2005
EXTT0=
EXTT1=
EXTT2=
EXTT3=
EXTT4=
EXTT5=
EXTT6=
EXTT7=
EXTT8=
EXTT9=
PLAYORDER=
